<svg width="70" height="70" viewBox="0 0 70 70" fill="none" xmlns="http://www.w3.org/2000/svg">
<path d="M61.2503 14.5833C58.0128 13.5625 54.4545 13.125 51.042 13.125C45.3545 13.125 39.2295 14.2917 35.0003 17.5C30.7712 14.2917 24.6462 13.125 18.9587 13.125C13.2712 13.125 7.14616 14.2917 2.91699 17.5V60.2292C2.91699 60.9583 3.64616 61.6875 4.37533 61.6875C4.66699 61.6875 4.81283 61.5417 5.10449 61.5417C9.04199 59.6458 14.7295 58.3333 18.9587 58.3333C24.6462 58.3333 30.7712 59.5 35.0003 62.7083C38.9378 60.2292 46.0837 58.3333 51.042 58.3333C55.8545 58.3333 60.8128 59.2083 64.8962 61.3958C65.1878 61.5417 65.3337 61.5417 65.6253 61.5417C66.3545 61.5417 67.0837 60.8125 67.0837 60.0833V17.5C65.3337 16.1875 63.4378 15.3125 61.2503 14.5833ZM8.75033 53.9583V20.4167C11.9587 19.3958 15.4587 18.9583 18.9587 18.9583C22.867 18.9583 28.0878 20.1542 32.0837 21.8458V55.3875C28.0878 53.6958 22.867 52.5 18.9587 52.5C15.4587 52.5 11.9587 52.9375 8.75033 53.9583ZM61.2503 53.9583C58.042 52.9375 54.542 52.5 51.042 52.5C47.1337 52.5 41.9128 53.6958 37.917 55.3875V21.8458C41.9128 20.125 47.1337 18.9583 51.042 18.9583C54.542 18.9583 58.042 19.3958 61.2503 20.4167V53.9583Z" fill="white"/>
<path opacity="0.3" d="M32.0836 21.8458C28.0877 20.1542 22.8669 18.9583 18.9586 18.9583C15.4586 18.9583 11.9586 19.3958 8.75024 20.4167V53.9583C11.9586 52.9375 15.4586 52.5 18.9586 52.5C22.8669 52.5 28.0877 53.6958 32.0836 55.3875V21.8458Z" fill="white"/>
<path d="M51.0413 30.625C53.608 30.625 56.0872 30.8875 58.333 31.3833V26.95C56.0288 26.5125 53.5497 26.25 51.0413 26.25C47.308 26.25 43.8663 26.7167 40.833 27.6208V32.2C43.7205 31.1792 47.1913 30.625 51.0413 30.625Z" fill="white"/>
<path d="M51.0413 38.3833C53.608 38.3833 56.0872 38.6458 58.333 39.1417V34.7083C56.0288 34.2708 53.5497 34.0083 51.0413 34.0083C47.308 34.0083 43.8663 34.475 40.833 35.3792V39.9583C43.7205 38.9667 47.1913 38.3833 51.0413 38.3833Z" fill="white"/>
<path d="M51.0413 46.1708C53.608 46.1708 56.0872 46.4333 58.333 46.9292V42.4958C56.0288 42.0583 53.5497 41.7958 51.0413 41.7958C47.308 41.7958 43.8663 42.2625 40.833 43.1667V47.7458C43.7205 46.725 47.1913 46.1708 51.0413 46.1708Z" fill="white"/>
</svg>
