<svg width="24" height="18" viewBox="0 0 24 18" fill="none" xmlns="http://www.w3.org/2000/svg">
<path d="M23.007 5.80787C23.1857 5.66588 23.4513 5.79871 23.4513 6.02315V15.3899C23.4513 16.6037 22.4666 17.5885 21.2528 17.5885H2.19856C0.984773 17.5885 0 16.6037 0 15.3899V6.02773C0 5.79871 0.261079 5.67046 0.444293 5.81245C1.47029 6.60943 2.83065 7.62169 7.5026 11.0157C8.46905 11.7211 10.0997 13.2051 11.7257 13.196C13.3609 13.2097 15.0235 11.6936 15.9533 11.0157C20.6253 7.62169 21.9811 6.60485 23.007 5.80787ZM11.7257 11.7257C12.7883 11.744 14.3181 10.3882 15.0876 9.82941C21.1658 5.41854 21.6284 5.03379 23.0299 3.93451C23.2956 3.7284 23.4513 3.40777 23.4513 3.06883V2.19856C23.4513 0.984773 22.4666 0 21.2528 0H2.19856C0.984773 0 0 0.984773 0 2.19856V3.06883C0 3.40777 0.155732 3.72382 0.421391 3.93451C1.82298 5.02921 2.28559 5.41854 8.3637 9.82941C9.1332 10.3882 10.663 11.744 11.7257 11.7257Z" fill="#FCA713"/>
</svg>
