<svg width="30" height="31" viewBox="0 0 30 31" fill="none" xmlns="http://www.w3.org/2000/svg">
<path fill-rule="evenodd" clip-rule="evenodd" d="M15.0002 0C9.46564 0 4.97729 4.48717 4.97729 10.0229C4.97729 14.4512 7.84907 18.2083 11.8316 19.5335C12.3325 19.6263 12.5165 19.316 12.5165 19.0512C12.5165 18.8123 12.507 18.0227 12.5028 17.1854C9.71419 17.7916 9.12593 16.0028 9.12593 16.0028C8.67008 14.8442 8.01303 14.536 8.01303 14.536C7.10368 13.9141 8.08135 13.9268 8.08135 13.9268C9.088 13.9975 9.61807 14.9598 9.61807 14.9598C10.5119 16.4921 11.9628 16.0489 12.5346 15.7929C12.6248 15.145 12.8844 14.7026 13.1711 14.4524C10.9449 14.1991 8.60459 13.3395 8.60459 9.49899C8.60459 8.4047 8.99613 7.51066 9.63739 6.80862C9.53326 6.55607 9.19025 5.53646 9.73445 4.15594C9.73445 4.15594 10.576 3.8869 12.4908 5.1838C13.2906 4.96164 14.1481 4.85021 14.9998 4.84644C15.8516 4.85044 16.7096 4.96187 17.5106 5.1838C19.4236 3.88714 20.2641 4.15618 20.2641 4.15618C20.8097 5.5367 20.4667 6.55607 20.3626 6.80886C21.0053 7.51042 21.394 8.4047 21.394 9.49923C21.394 13.3487 19.0492 14.1963 16.8173 14.4441C17.1768 14.7551 17.4972 15.3653 17.4972 16.3005C17.4972 17.6415 17.4859 18.7207 17.4859 19.0508C17.4859 19.317 17.6663 19.6298 18.1743 19.5313C22.1547 18.2045 25.0227 14.4489 25.0227 10.022C25.0232 4.48741 20.5357 0 15.0002 0Z" fill="#EEA117"/>
<path d="M8.77356 14.3904C8.75118 14.4403 8.67273 14.4551 8.60158 14.421C8.52855 14.388 8.48803 14.3204 8.51159 14.2702C8.53279 14.2193 8.61148 14.205 8.68427 14.2391C8.7573 14.2721 8.79853 14.3404 8.77356 14.3904ZM9.17947 14.8436C9.13165 14.8877 9.03812 14.8672 8.97451 14.797C8.90902 14.727 8.89677 14.6335 8.9453 14.5887C8.9943 14.5444 9.085 14.5652 9.15026 14.6351C9.21622 14.7058 9.22918 14.7984 9.17924 14.8434L9.17947 14.8436ZM9.57455 15.4203C9.51329 15.4632 9.4127 15.4232 9.35074 15.3339C9.28902 15.2451 9.28902 15.1383 9.35192 15.0952C9.41411 15.0524 9.51306 15.091 9.57572 15.1793C9.63745 15.27 9.63745 15.377 9.57455 15.4203ZM10.1159 15.9782C10.061 16.0387 9.94394 16.0225 9.85842 15.9398C9.77079 15.859 9.74652 15.7443 9.80141 15.6837C9.85725 15.6232 9.9748 15.6401 10.061 15.7221C10.1482 15.8027 10.1746 15.9179 10.1159 15.9782ZM10.8632 16.3019C10.8387 16.3806 10.7261 16.4161 10.6125 16.3829C10.499 16.3485 10.425 16.2567 10.4476 16.1775C10.4712 16.0983 10.5847 16.0614 10.699 16.0969C10.8121 16.1309 10.8865 16.2218 10.8632 16.3019ZM11.683 16.362C11.6861 16.4444 11.5897 16.5132 11.4705 16.5146C11.3509 16.5174 11.2538 16.4505 11.2524 16.369C11.2524 16.2856 11.3466 16.2178 11.4663 16.2159C11.5855 16.2135 11.683 16.28 11.683 16.362ZM12.4463 16.2322C12.4605 16.3127 12.378 16.3957 12.2595 16.4176C12.1431 16.4392 12.0357 16.3893 12.0206 16.3092C12.0065 16.2267 12.0906 16.1443 12.2067 16.1226C12.3252 16.1019 12.4312 16.1502 12.4463 16.2322Z" fill="#EEA117"/>
<path d="M5.77817 25.4725H3.25742C3.22618 25.4725 3.19622 25.4849 3.17413 25.507C3.15204 25.5291 3.13963 25.5591 3.13963 25.5903V26.8229C3.13963 26.8541 3.15204 26.8841 3.17413 26.9062C3.19622 26.9283 3.22618 26.9407 3.25742 26.9407H4.24052V28.472C4.24052 28.472 4.01977 28.5474 3.4089 28.5474C2.68896 28.5474 1.68278 28.2844 1.68278 26.0718C1.68278 23.859 2.73066 23.5676 3.71446 23.5676C4.56586 23.5676 4.93243 23.7174 5.16613 23.7897C5.23916 23.8119 5.30748 23.7388 5.30748 23.6738L5.58853 22.4829C5.58898 22.4651 5.58511 22.4474 5.57723 22.4314C5.56935 22.4154 5.55771 22.4016 5.5433 22.3911C5.44836 22.3232 4.87023 22 3.40937 22C1.72636 22 0 22.7157 0 26.1581C0 29.5999 1.97655 30.1128 3.64213 30.1128C5.02124 30.1128 5.8578 29.5234 5.8578 29.5234C5.8922 29.5045 5.89597 29.4562 5.89597 29.4339V25.5901C5.89597 25.5588 5.88356 25.5289 5.86147 25.5068C5.83938 25.4847 5.80941 25.4725 5.77817 25.4725ZM18.6531 22.294H17.2335C17.218 22.2941 17.2026 22.2972 17.1884 22.3032C17.1741 22.3092 17.1611 22.3179 17.1502 22.3289C17.1393 22.3399 17.1307 22.353 17.1249 22.3673C17.119 22.3817 17.116 22.397 17.1161 22.4125L17.1166 25.1557H14.904V22.4125C14.9041 22.397 14.9011 22.3817 14.8953 22.3674C14.8895 22.3531 14.8809 22.34 14.87 22.329C14.8591 22.318 14.8462 22.3093 14.8319 22.3032C14.8177 22.2972 14.8024 22.2941 14.7869 22.294H13.3675C13.352 22.2941 13.3367 22.2972 13.3224 22.3032C13.3081 22.3092 13.2952 22.3179 13.2843 22.3289C13.2734 22.3399 13.2648 22.353 13.2589 22.3673C13.2531 22.3817 13.2501 22.397 13.2502 22.4125V29.8405C13.2502 29.9057 13.303 29.959 13.3675 29.959H14.7869C14.8024 29.9589 14.8177 29.9557 14.832 29.9497C14.8463 29.9437 14.8592 29.9349 14.8701 29.9239C14.881 29.9129 14.8896 29.8998 14.8954 29.8854C14.9012 29.8711 14.9041 29.8557 14.904 29.8402V26.6632H17.1166L17.1128 29.8402C17.1128 29.9057 17.1656 29.959 17.2306 29.959H18.6531C18.6686 29.9589 18.6839 29.9557 18.6982 29.9497C18.7124 29.9437 18.7254 29.9349 18.7363 29.9239C18.7471 29.9129 18.7557 29.8998 18.7615 29.8854C18.7674 29.8711 18.7703 29.8557 18.7702 29.8402V22.4123C18.7702 22.3468 18.7183 22.294 18.6531 22.294ZM7.54152 22.4629C7.03643 22.4629 6.62651 22.8759 6.62651 23.3871C6.62651 23.8976 7.03643 24.3118 7.54152 24.3118C8.04709 24.3118 8.45677 23.8976 8.45677 23.3871C8.45677 22.8759 8.04685 22.4629 7.54152 22.4629ZM8.23791 24.7264H6.82299C6.75797 24.7264 6.70002 24.7933 6.70002 24.8583V29.7707C6.70002 29.9152 6.79001 29.958 6.90639 29.958H8.1809C8.32107 29.958 8.35523 29.8892 8.35523 29.7684V28.2734V24.8449C8.35529 24.8294 8.35231 24.8141 8.34644 24.7998C8.34058 24.7855 8.33196 24.7725 8.32106 24.7615C8.31017 24.7505 8.29722 24.7418 8.28295 24.7358C8.26868 24.7298 8.25338 24.7265 8.23791 24.7264ZM24.1648 24.7375H22.756C22.7406 24.7376 22.7253 24.7408 22.711 24.7468C22.6968 24.7529 22.6839 24.7616 22.673 24.7727C22.6622 24.7837 22.6536 24.7967 22.6478 24.8111C22.642 24.8254 22.639 24.8408 22.6392 24.8562V28.4984C22.6392 28.4984 22.2811 28.7599 21.7734 28.7599C21.2657 28.7599 21.131 28.5297 21.131 28.0324V24.8562C21.1311 24.8407 21.1282 24.8254 21.1223 24.811C21.1165 24.7967 21.1079 24.7836 21.097 24.7726C21.0862 24.7615 21.0732 24.7528 21.059 24.7467C21.0447 24.7407 21.0294 24.7376 21.0139 24.7375H19.5844C19.5531 24.7377 19.5232 24.7504 19.5012 24.7726C19.4792 24.7949 19.4669 24.8249 19.467 24.8562V28.2727C19.467 29.7498 20.2904 30.1112 21.4228 30.1112C22.352 30.1112 23.1012 29.5976 23.1012 29.5976C23.1012 29.5976 23.1365 29.8685 23.153 29.9003C23.1695 29.9324 23.2112 29.9646 23.2566 29.9646L24.166 29.9606C24.1815 29.9606 24.1969 29.9574 24.2112 29.9514C24.2255 29.9454 24.2385 29.9367 24.2495 29.9257C24.2604 29.9146 24.2691 29.9016 24.275 29.8872C24.2808 29.8728 24.2838 29.8574 24.2838 29.8419L24.2831 24.8555C24.283 24.8243 24.2705 24.7943 24.2485 24.7722C24.2264 24.7501 24.1965 24.7375 24.1653 24.7373L24.1648 24.7375ZM28.0147 24.5707C27.2147 24.5707 26.6705 24.9276 26.6705 24.9276V22.4123C26.6706 22.3968 26.6676 22.3815 26.6618 22.3671C26.656 22.3528 26.6474 22.3398 26.6365 22.3288C26.6256 22.3178 26.6127 22.309 26.5984 22.303C26.5842 22.297 26.5689 22.2939 26.5534 22.2938H25.1302C25.1147 22.2938 25.0993 22.2968 25.085 22.3028C25.0707 22.3088 25.0576 22.3175 25.0467 22.3285C25.0357 22.3395 25.0271 22.3526 25.0212 22.367C25.0153 22.3814 25.0124 22.3967 25.0124 22.4123V29.8402C25.0124 29.8558 25.0153 29.8712 25.0212 29.8855C25.0271 29.8999 25.0357 29.913 25.0467 29.924C25.0576 29.935 25.0707 29.9437 25.085 29.9497C25.0993 29.9557 25.1147 29.9587 25.1302 29.9587H26.1178C26.1626 29.9587 26.196 29.9359 26.2208 29.8956C26.245 29.8556 26.2806 29.5531 26.2806 29.5531C26.2806 29.5531 26.8625 30.1043 27.9646 30.1043C29.2579 30.1043 30 29.4485 30 27.1591C30 24.8697 28.815 24.5705 28.0145 24.5705L28.0147 24.5707ZM27.4588 28.7556C26.9704 28.7408 26.6389 28.5191 26.6389 28.5191V26.1668C26.6389 26.1668 26.9659 25.9665 27.3669 25.9303C27.8741 25.8848 28.3629 26.0381 28.3629 27.2481C28.3629 28.5243 28.1427 28.7761 27.459 28.7554L27.4588 28.7556ZM12.4546 28.7278C12.3927 28.7278 12.2339 28.753 12.0706 28.753C11.5476 28.753 11.3702 28.5099 11.3702 28.1952V26.1065H12.4351C12.4506 26.1065 12.466 26.1034 12.4804 26.0974C12.4947 26.0914 12.5078 26.0827 12.5187 26.0716C12.5297 26.0606 12.5383 26.0475 12.5442 26.0331C12.55 26.0187 12.553 26.0033 12.5529 25.9877V24.8437C12.5529 24.8282 12.5499 24.8129 12.544 24.7985C12.5381 24.7842 12.5295 24.7711 12.5185 24.7601C12.5076 24.7492 12.4946 24.7404 12.4803 24.7345C12.4659 24.7285 12.4506 24.7255 12.4351 24.7255H11.3702L11.3686 23.319C11.3686 23.2656 11.3413 23.2389 11.2795 23.2389H9.82834C9.77227 23.2389 9.74188 23.2639 9.74188 23.3179V24.7714C9.74188 24.7714 9.01463 24.9469 8.96563 24.9611C8.94116 24.9682 8.91967 24.9831 8.90438 25.0035C8.88908 25.0239 8.88082 25.0487 8.88082 25.0741V25.9875C8.88073 26.003 8.88368 26.0183 8.88951 26.0326C8.89535 26.047 8.90395 26.06 8.91482 26.071C8.92569 26.082 8.93862 26.0908 8.95288 26.0968C8.96714 26.1028 8.98244 26.1059 8.9979 26.106H9.74188V28.3035C9.74188 29.9361 10.8868 30.0963 11.6595 30.0963C12.0122 30.0963 12.4346 29.9832 12.5043 29.9573C12.5467 29.9415 12.571 29.898 12.571 29.8506L12.572 28.8458C12.5715 28.8147 12.5589 28.785 12.5369 28.7629C12.515 28.7409 12.4853 28.7282 12.4542 28.7276L12.4546 28.7278Z" fill="#EEA117"/>
</svg>
