<svg width="25" height="25" viewBox="0 0 25 25" fill="none" xmlns="http://www.w3.org/2000/svg">
<path d="M23.1557 9.46716e-05H1.84426C1.36072 -0.00482636 0.894973 0.182275 0.549219 0.520343C0.203465 0.858411 0.00594493 1.31983 0 1.80336V23.2007C0.00702005 23.6836 0.205013 24.1439 0.55065 24.4811C0.896287 24.8183 1.36142 25.0048 1.84426 24.9999H23.1557C23.6393 25.0037 24.1047 24.816 24.4503 24.4777C24.7959 24.1394 24.9935 23.6781 25 23.1946V1.79721C24.9914 1.3151 24.7928 0.855881 24.4475 0.519365C24.1021 0.182848 23.6379 -0.00376219 23.1557 9.46716e-05Z" fill="#0076B2"/>
<path d="M4.27539 9.54609H7.73883V20.6899H4.27539V9.54609ZM6.00807 4C6.40531 4 6.79362 4.11782 7.12389 4.33855C7.45415 4.55929 7.71153 4.87302 7.86346 5.24006C8.01539 5.60709 8.05505 6.01095 7.97741 6.40053C7.89977 6.7901 7.70833 7.1479 7.42731 7.42866C7.14628 7.70942 6.7883 7.90052 6.39865 7.97778C6.009 8.05505 5.60518 8.01501 5.23829 7.86273C4.8714 7.71045 4.55791 7.45277 4.33749 7.1223C4.11707 6.79182 3.99962 6.40339 4 6.00616C4.00051 5.47391 4.21229 4.96365 4.58883 4.58747C4.96536 4.2113 5.47583 4 6.00807 4Z" fill="white"/>
<path d="M9.91138 9.5461H13.2314V11.0761H13.2773C13.7401 10.2002 14.8684 9.27645 16.5533 9.27645C20.0607 9.2688 20.711 11.5771 20.711 14.5701V20.6899H17.2475V15.2681C17.2475 13.9772 17.2246 12.3153 15.4479 12.3153C13.6712 12.3153 13.3691 13.7229 13.3691 15.184V20.6899H9.91138V9.5461Z" fill="white"/>
</svg>
