<svg width="50" height="50" viewBox="0 0 50 50" fill="none" xmlns="http://www.w3.org/2000/svg">
<path d="M50 0C18.75 0 12.5 6.25 12.5 6.25V31.8125C11.5625 31.5 10.4375 31.25 9.375 31.25C4.1875 31.25 0 35.4375 0 40.625C0 45.8125 4.1875 50 9.375 50C14.5625 50 18.75 45.8125 18.75 40.625V15.8125C23.3125 14.375 31.1875 13.0625 43.75 12.6875V25.5625C42.8125 25.25 41.6875 25 40.625 25C35.4375 25 31.25 29.1875 31.25 34.375C31.25 39.5625 35.4375 43.75 40.625 43.75C45.8125 43.75 50 39.5625 50 34.375V0Z" fill="white"/>
</svg>
