<svg width="27" height="27" viewBox="0 0 27 27" fill="none" xmlns="http://www.w3.org/2000/svg">
<path d="M14.1143 8.6857C14.9781 8.6857 15.8066 9.02886 16.4174 9.63969C17.0282 10.2505 17.3714 11.079 17.3714 11.9428C17.3714 12.2308 17.4858 12.5069 17.6894 12.7105C17.893 12.9142 18.1692 13.0285 18.4571 13.0285C18.7451 13.0285 19.0212 12.9142 19.2248 12.7105C19.4284 12.5069 19.5428 12.2308 19.5428 11.9428C19.5428 10.5031 18.9709 9.12232 17.9528 8.10427C16.9348 7.08622 15.554 6.51428 14.1143 6.51428C13.8263 6.51428 13.5502 6.62867 13.3466 6.83228C13.143 7.03589 13.0286 7.31204 13.0286 7.59999C13.0286 7.88794 13.143 8.16409 13.3466 8.3677C13.5502 8.57131 13.8263 8.6857 14.1143 8.6857Z" fill="#FCA713"/>
<path d="M14.1143 4.34287C16.1299 4.34287 18.063 5.14358 19.4883 6.56885C20.9135 7.99412 21.7142 9.9272 21.7142 11.9428C21.7142 12.2308 21.8286 12.5069 22.0322 12.7105C22.2358 12.9142 22.512 13.0285 22.8 13.0285C23.0879 13.0285 23.3641 12.9142 23.5677 12.7105C23.7713 12.5069 23.8857 12.2308 23.8857 11.9428C23.8857 9.3513 22.8562 6.86591 21.0237 5.03342C19.1912 3.20093 16.7058 2.17145 14.1143 2.17145C13.8263 2.17145 13.5502 2.28583 13.3466 2.48944C13.143 2.69305 13.0286 2.96921 13.0286 3.25716C13.0286 3.54511 13.143 3.82126 13.3466 4.02487C13.5502 4.22848 13.8263 4.34287 14.1143 4.34287Z" fill="#FCA713"/>
<path d="M23.6142 17.2737C23.5544 17.0994 23.4513 16.9431 23.3146 16.8197C23.1778 16.6962 23.0119 16.6096 22.8324 16.568L16.3182 15.0805C16.1414 15.0404 15.9573 15.0453 15.7828 15.0946C15.6084 15.1439 15.449 15.2361 15.3193 15.3628C15.1673 15.504 15.1565 15.5148 14.4508 16.8611C12.1091 15.7821 10.2328 13.898 9.16336 11.552C10.5422 10.8571 10.5531 10.8571 10.6942 10.6943C10.8209 10.5646 10.9131 10.4052 10.9624 10.2308C11.0118 10.0563 11.0166 9.87224 10.9765 9.69542L9.48907 3.25716C9.44743 3.07769 9.3608 2.91176 9.23734 2.77501C9.11388 2.63825 8.95765 2.53516 8.78336 2.47545C8.52981 2.38489 8.26798 2.31943 8.00165 2.28002C7.72724 2.21639 7.44721 2.18002 7.16565 2.17145C5.84109 2.17145 4.57078 2.69763 3.63417 3.63423C2.69757 4.57084 2.17139 5.84115 2.17139 7.16571C2.17713 11.5983 3.94054 15.8478 7.07489 18.9821C10.2092 22.1165 14.4587 23.8799 18.8913 23.8856C19.5472 23.8856 20.1966 23.7565 20.8025 23.5055C21.4085 23.2545 21.959 22.8866 22.4228 22.4229C22.8866 21.9591 23.2544 21.4085 23.5054 20.8026C23.7564 20.1967 23.8856 19.5472 23.8856 18.8914C23.8859 18.615 23.8641 18.3391 23.8204 18.0662C23.7748 17.7966 23.7058 17.5314 23.6142 17.2737ZM18.8913 21.7142C15.0337 21.7113 11.3349 20.1776 8.60714 17.4499C5.87939 14.7221 4.34568 11.0233 4.34281 7.16571C4.34567 6.41793 4.64399 5.70159 5.17276 5.17282C5.70153 4.64405 6.41787 4.34573 7.16565 4.34287H7.52394L8.68565 9.38056L8.09936 9.68456C7.16565 10.1731 6.42737 10.564 6.81822 11.4108C7.45469 13.2127 8.48454 14.8501 9.83295 16.2041C11.1814 17.5582 12.8145 18.5948 14.6136 19.2388C15.5256 19.6079 15.8839 18.9239 16.3725 17.9794L16.6873 17.3822L21.7142 18.5331V18.8914C21.7113 19.6392 21.413 20.3555 20.8842 20.8843C20.3554 21.413 19.6391 21.7114 18.8913 21.7142Z" fill="#FCA713"/>
</svg>
