<svg width="60" height="55" viewBox="0 0 60 55" fill="none" xmlns="http://www.w3.org/2000/svg">
<path d="M41.033 39.9525H38.3976V6.22477C38.3975 6.2076 38.3973 6.18718 38.3973 6.16676C38.3973 2.77013 41.1435 0.0147983 44.5366 0H44.5381C47.9327 0.0147983 50.6789 2.77013 50.6789 6.16676C50.6789 6.19002 50.6788 6.21317 50.6785 6.23631V6.23276L48.0432 6.20376C48.0432 4.2679 46.4739 2.69862 44.5381 2.69862C42.6023 2.69862 41.033 4.26784 41.033 6.2037V39.9524V39.9525ZM21.6893 39.9525H19.054V6.21956C19.0539 6.21169 19.0539 6.20239 19.0539 6.1931C19.0539 2.78475 21.8072 0.0193562 25.211 0H25.2261C28.6184 0.017758 31.3616 2.7719 31.3616 6.16676C31.3616 6.18996 31.3615 6.21311 31.3613 6.23625V6.2327L28.7259 6.2037C28.7259 4.26062 27.1507 2.68542 25.2076 2.68542C23.2645 2.68542 21.6894 4.26056 21.6894 6.2037L21.6893 39.9525ZM39.7154 14.7055H20.3716V12.0701H39.7154V14.7055ZM39.7154 26.7756H20.3716V24.1402H39.7154V26.7756ZM13.1243 12.281H1.05417V9.64555H13.1243V12.281ZM59.0328 12.281H46.9627V9.64555H59.0328V12.281ZM37.2512 40.0843C34.4326 40.0774 31.8791 38.9484 30.0127 37.1204L30.0144 37.1221C28.1502 38.9441 25.5972 40.0682 22.7816 40.0682C19.966 40.0682 17.413 38.9441 15.5468 37.1202L15.5488 37.1222C13.68 38.9452 11.1226 40.0698 8.30245 40.0698C4.91926 40.0698 1.91407 38.4513 0.0189419 35.9464L0 35.9203L2.10829 34.3392C3.53704 36.2254 5.77845 37.4314 8.30145 37.4314C10.8244 37.4314 13.0659 36.2254 14.4806 34.3585L14.4946 34.3392L15.5487 32.9345L16.603 34.3392C18.0266 36.2251 20.2638 37.4314 22.7829 37.4314C25.3019 37.4314 27.5393 36.2251 28.9487 34.3587L28.9628 34.3392L30.017 32.9266L31.0712 34.3444C32.4892 36.2372 34.7267 37.4491 37.2473 37.4491C39.7678 37.4491 42.0054 36.2373 43.4091 34.3644L43.4234 34.3445L44.4776 32.9266L45.5317 34.3392C46.9553 36.2251 49.1927 37.4315 51.7117 37.4315C54.2307 37.4315 56.4681 36.2251 57.8776 34.3588L57.8918 34.3392L60 35.9205C58.091 38.4504 55.0904 40.0685 51.7118 40.0685C48.897 40.0685 46.3446 38.9454 44.4781 37.1229L44.4802 37.1249C42.617 38.9484 40.0667 40.0762 37.2529 40.0845H37.2514L37.2512 40.0843ZM37.2512 54.579C34.4326 54.5721 31.8791 53.443 30.0127 51.615L30.0144 51.6168C28.1502 53.4388 25.5972 54.5629 22.7816 54.5629C19.966 54.5629 17.413 53.4388 15.5468 51.6149L15.5488 51.6169C13.68 53.4399 11.1226 54.5645 8.30245 54.5645C4.91926 54.5645 1.91407 52.946 0.0189419 50.441L0 50.415L2.10829 48.8338C3.53704 50.7201 5.77845 51.9261 8.30145 51.9261C10.8244 51.9261 13.0659 50.7201 14.4806 48.8531L14.4946 48.8338L15.5487 47.4292L16.603 48.8338C18.0266 50.7197 20.2638 51.9261 22.7829 51.9261C25.3019 51.9261 27.5393 50.7197 28.9487 48.8534L28.9628 48.8338L30.017 47.4212L31.0712 48.8391C32.4892 50.7319 34.7267 51.9438 37.2473 51.9438C39.7678 51.9438 42.0053 50.7319 43.409 48.8591L43.4233 48.8392L44.4776 47.4213L45.5317 48.8339C46.9553 50.7198 49.1926 51.9261 51.7116 51.9261C54.2307 51.9261 56.4681 50.7198 57.8775 48.8534L57.8917 48.8339L59.9999 50.4151C58.091 52.945 55.0903 54.5632 51.7117 54.5632C48.8969 54.5632 46.3445 53.4401 44.4781 51.6176L44.4801 51.6196C42.6169 53.443 40.0667 54.5709 37.2528 54.5791H37.2513L37.2512 54.579Z" fill="white"/>
</svg>
